<?xml version="1.0" encoding="utf-8"?>
<!-- Generator: Adobe Illustrator 17.1.0, SVG Export Plug-In . SVG Version: 6.00 Build 0)  -->
<!DOCTYPE svg PUBLIC "-//W3C//DTD SVG 1.1//EN" "http://www.w3.org/Graphics/SVG/1.1/DTD/svg11.dtd">
<svg version="1.1" id="layout" xmlns="http://www.w3.org/2000/svg" xmlns:xlink="http://www.w3.org/1999/xlink" x="0px" y="0px"
	 viewBox="0 228.8 1280 320" enable-background="new 0 228.8 1280 320" xml:space="preserve">
<g>
	<path fill="#070707" d="M-715.3,531.5V491c0-5.1-5.9-7.9-9.8-4.6l-49.2,40.5c-4.3,3.6-1.8,10.6,3.8,10.6h49.2
		C-718,537.5-715.3,534.8-715.3,531.5z"/>
	<path fill="#070707" d="M-848.3,416.1v115.4c0,3.3,2.7,6,6,6h37.8c1.4,0,2.8-0.5,3.8-1.4l83.2-69.1c1.4-1.1,2.2-2.8,2.2-4.6v-0.3
		c0-2.5-1.5-4.7-3.9-5.6l-121.1-46C-844.1,409-848.3,411.9-848.3,416.1z"/>
	<path fill="#070707" d="M-773,415.7l-29.6-166.6c-0.5-2.9-3-5-5.9-5h-33.9c-3.3,0-6,2.7-6,6v142.2c0,2.5,1.5,4.7,3.8,5.6l63.5,24.4
		C-776.7,424-772.2,420.3-773,415.7z"/>
	<path fill="#070707" d="M-792.1,251.3l17,95.9c0.8,4.6,6.3,6.5,9.8,3.5l47.9-40.5c1.3-1.1,2.1-2.8,2.1-4.6v-55.3c0-3.3-2.7-6-6-6
		h-64.9C-790,244.2-792.8,247.6-792.1,251.3z"/>
</g>
<path fill="#070707" d="M-706.3,250.2v40.5c0,5.1,5.9,7.9,9.8,4.6l49.2-40.5c4.3-3.6,1.8-10.6-3.8-10.6h-49.2
	C-703.6,244.2-706.3,246.9-706.3,250.2z"/>
<path fill="#070707" d="M-573.2,365.6V250.2c0-3.3-2.7-6-6-6h-37.8c-1.4,0-2.8,0.5-3.8,1.4l-83.2,69.1c-1.4,1.1-2.2,2.8-2.2,4.6v0.3
	c0,2.5,1.5,4.7,3.9,5.6l121.1,46C-577.4,372.7-573.2,369.8-573.2,365.6z"/>
<path fill="#070707" d="M-648.6,366l29.6,166.6c0.5,2.9,3,5,5.9,5h33.9c3.3,0,6-2.7,6-6V389.3c0-2.5-1.5-4.7-3.8-5.6l-63.5-24.4
	C-644.9,357.6-649.4,361.4-648.6,366z"/>
<path fill="#070707" d="M-629.5,530.4l-17-95.9c-0.8-4.6-6.3-6.5-9.8-3.5l-47.9,40.5c-1.3,1.1-2.1,2.8-2.1,4.6v55.3c0,3.3,2.7,6,6,6
	h64.9C-631.6,537.5-628.8,534.1-629.5,530.4z"/>
<path fill="#070707" d="M-700.6,442.1l-47.5-15.6c-2-0.7-3.6-2.4-4-4.5l-10.2-49c-0.4-2.1,0.3-4.3,1.9-5.7l37.3-33.4
	c1.6-1.4,3.8-1.9,5.9-1.2l47.5,15.6c2,0.7,3.6,2.4,4,4.5l10.2,49c0.4,2.1-0.3,4.3-1.9,5.7l-37.3,33.4
	C-696.3,442.3-698.5,442.8-700.6,442.1z"/>
<path fill="#070707" d="M-408.2,61.3l-37.4-15.5c-4.7-1.9-9.5,2.4-8,7.3l18.5,60.9c1.6,5.4,9.1,5.8,11.3,0.6l18.9-45.4
	C-403.7,66-405.2,62.5-408.2,61.3z"/>
<path fill="#070707" d="M-557.5,152.6l107.3,42.3c3.1,1.2,6.6-0.3,7.8-3.4l13.9-35.2c0.5-1.3,0.6-2.7,0.1-4.1l-33.8-102.8
	c-0.6-1.7-1.8-3.1-3.5-3.7l-0.2-0.1c-2.3-0.9-5-0.3-6.6,1.5l-87.2,95.8C-562.6,146.1-561.4,151-557.5,152.6z"/>
<path fill="#070707" d="M-477.9,34.7L-642.5-4.4c-2.8-0.7-5.7,0.8-6.9,3.4l-13.5,31.1c-1.3,3,0.1,6.6,3.1,7.9l130.4,56.6
	c2.3,1,4.9,0.5,6.7-1.3l47.6-48.5C-471.7,41.4-473.3,35.8-477.9,34.7z"/>
<path fill="#070707" d="M-569.4-5.2l90.9,34.9c4.3,1.7,8.8-2,8.1-6.6l-10-62c-0.3-1.7-1.3-3.3-2.8-4.2l-47.4-28.6
	c-2.8-1.7-6.5-0.8-8.2,2l-33.5,55.6C-574.3-10.7-572.9-6.5-569.4-5.2z"/>
<path fill="#070707" d="M-436.3-96.3v40.5c0,5.1,5.9,7.9,9.8,4.6l49.2-40.5c4.3-3.6,1.8-10.6-3.8-10.6h-49.2
	C-433.6-102.3-436.3-99.6-436.3-96.3z"/>
<path fill="#070707" d="M-349.9-59l-96-63.9c-2.8-1.8-6.5-1.1-8.3,1.7l-21,31.5c-0.8,1.2-1.1,2.6-1,4l11.4,107.6
	c0.2,1.8,1.2,3.4,2.6,4.4l0.2,0.1c2.1,1.4,4.8,1.3,6.8-0.1l105.4-75.3C-346.3-51.6-346.4-56.7-349.9-59z"/>
<path fill="#070707" d="M-450.2,39.3l156.7,63.8c2.7,1.1,5.8,0.1,7.3-2.4l18.1-28.7c1.8-2.8,0.9-6.5-1.9-8.3l-120.3-75.8
	c-2.1-1.3-4.8-1.2-6.8,0.3l-54.5,40.7C-455.3,31.7-454.5,37.5-450.2,39.3z"/>
<path fill="#070707" d="M-251.9,227.9l-17-95.9c-0.8-4.6-6.3-6.5-9.8-3.5l-47.9,40.5c-1.3,1.1-2.1,2.8-2.1,4.6V229c0,3.3,2.7,6,6,6
	h64.9C-254,235-251.2,231.6-251.9,227.9z"/>
<g>
	<g>
		<g>
			<path fill="#070707" d="M287.8,350.1l-116.5,34.2c-5.5,1.6-6.3,9.1-1.3,11.9l116.5,63.6c4.3,2.3,9.6-0.8,9.6-5.7v-97.8
				C296,351.9,291.9,348.8,287.8,350.1z"/>
			<path fill="#070707" d="M8.3,425.4l116.3-34.2c5.5-1.6,6.3-9.1,1.3-11.9L9.6,315.9c-4.3-2.3-9.6,0.8-9.6,5.7v97.7
				C0,423.6,4.1,426.7,8.3,425.4z"/>
			<path fill="#070707" d="M169.5,378.1l121.9-35.8c2.7-0.8,4.6-3.3,4.6-6.2v-98.2c0-3.6-2.9-6.5-6.5-6.5h-48.8
				c-2.4,0-4.5,1.3-5.7,3.4l-73.1,134C159.2,373.8,164,379.7,169.5,378.1z"/>
			<path fill="#070707" d="M0,439.4v101.2c0,3.6,2.9,6.5,6.5,6.5h47c2.4,0,4.5-1.3,5.7-3.4l74.8-137c2.8-5-2-10.9-7.5-9.3L4.6,433.2
				C1.9,434,0,436.6,0,439.4z"/>
			<path fill="#070707" d="M157.7,409.3l39.1,133.2c0.8,2.7,3.3,4.6,6.2,4.6h86.6c3.6,0,6.5-2.9,6.5-6.5v-64.6
				c0-2.4-1.3-4.5-3.4-5.7l-125.7-68.6C161.9,399,156,403.8,157.7,409.3z"/>
			<path fill="#070707" d="M138.3,366.2L100,236.1c-0.8-2.7-3.3-4.6-6.2-4.6H6.5c-3.6,0-6.5,2.9-6.5,6.5v61.6c0,2.4,1.3,4.5,3.4,5.7
				L129,373.7C134,376.5,139.9,371.8,138.3,366.2z"/>
			<path fill="#070707" d="M139.6,409.8L69.9,537.6c-2.3,4.3,0.8,9.6,5.7,9.6h107.2c4.3,0,7.4-4.1,6.2-8.3l-37.5-127.7
				C149.8,405.6,142.4,404.8,139.6,409.8z"/>
			<path fill="#070707" d="M107.8,239.7l36.6,124.7c1.6,5.5,9.1,6.3,11.9,1.3L224.4,241c2.3-4.3-0.8-9.6-5.7-9.6H114
				C109.7,231.4,106.6,235.6,107.8,239.7z"/>
		</g>
	</g>
	<g>
		<path d="M324.9,230.6h34c9.5,0,17.1,2.1,22.4,6.3c5.4,4,8.3,10.1,8.3,18c0,7.1-3.3,14.4-10.8,18.6c14.9,5.3,15.3,17.6,15.3,21.5
			c0,7.4-2.9,15.5-8.5,20.1c-8.5,7.1-14.6,8-30.3,8h-30.4V230.6z M348.6,265.8h8.4c1.6,0,4.1,0,6.3-0.9c2.1-1,3.8-2.9,3.8-6.5
			c0-3.5-1.6-5.3-3.6-6.1s-4.5-0.9-6.4-0.9h-8.4V265.8z M348.6,302.5h11.1c1.5,0,4.5,0,7-1.1c2.6-1.1,4.8-3.4,4.8-7.8c0-4-2-6-4.5-7
			c-2.4-1-5.4-1-7.3-1h-11.1V302.5z"/>
		<path d="M404.8,230.6h30.3c14.5,0,23.5,2.6,28.7,6.6c7.8,6,11.3,15.1,11.3,25.3c0,7.1-2,12.6-4.6,16.8c-3.1,4.9-7.6,8-12,9.9
			l19.1,34h-24.4l-24.2-44.7h3.9c6,0,11.1-0.5,14.3-2.5c2.9-1.9,5.3-6.3,5.3-11.4c0-4.9-2.4-8.8-5.5-10.8c-2.6-1.6-6.4-2.5-9.6-2.5
			h-8.8v71.8h-23.7V230.6z"/>
		<path d="M480.5,277.9c0-30.3,23.3-49.1,48.8-49.1c28.5,0,48.9,22.3,48.9,48.1c0,25.8-20.3,48.1-49.1,48.1
			c-29.2,0-48.7-23.2-48.7-46.9V277.9z M504.2,276.8c0,14.1,9.6,27.4,25.5,27.4c16.8,0,24.9-15.3,24.9-27.2c0-12-8.1-27.4-25.2-27.4
			c-16.4,0-25.3,14-25.3,27V276.8z"/>
		<path d="M590.3,230.6H614v41.7l26.4-41.7h24.8l-30.5,46.1l33.7,46.6h-28.8l-25.5-40v40h-23.7V230.6z"/>
		<path d="M674,230.6h52.4v20.8h-28.8v14.4h27.9v20.8h-27.9v15.9h28.8v20.8H674V230.6z"/>
		<path d="M796,287.1l-0.5-56.4h22.7v92.6h-20.5l-35.4-55.8l0.5,55.8H740v-92.6h20.4L796,287.1z"/>
		<path d="M324.9,435.1v-92.6h23.7v34.8h30.3v-34.8h23.7v92.6h-23.7v-37h-30.3v37H324.9z"/>
		<path d="M417.9,342.5h52.4v20.8h-28.8v14.4h27.9v20.8h-27.9v15.9h28.8v20.8h-52.4V342.5z"/>
		<path d="M500.9,435.1h-25.7l36.7-92.6h20.4l35.5,92.6h-25.9l-4.4-13.4h-32.4L500.9,435.1z M521,370.6l-10,32.3h20.4L521,370.6z"/>
		<path d="M574.2,342.5h30.3c14.5,0,23.5,2.6,28.7,6.6c7.8,6,11.3,15.1,11.3,25.3c0,7.1-2,12.6-4.6,16.8c-3.1,4.9-7.6,8-12,9.9
			l19.1,34h-24.4l-24.2-44.7h3.9c6,0,11.1-0.5,14.3-2.5c2.9-1.9,5.3-6.3,5.3-11.4c0-4.9-2.4-8.8-5.5-10.8c-2.6-1.6-6.4-2.5-9.6-2.5
			h-8.8v71.8h-23.7V342.5z"/>
		<path d="M666.2,363.3h-18.3v-20.8H708v20.8h-18.1v71.8h-23.7V363.3z"/>
		<path d="M355.2,454.3c17.1,0,23.5,2.6,28.5,6.8c7.3,6,10.9,15.1,10.9,24.5c0,9.4-3.9,19.3-9.8,24.3c-6.4,5.4-12.6,8-27,8h-9.3v29
			h-23.7v-92.6H355.2z M348.6,497.1h8.6c2.3,0,6,0,9.1-1.4c3.1-1.4,5.6-4.3,5.6-9.8s-2.6-8.1-5.9-9.5s-7.1-1.4-9.8-1.4h-7.8V497.1z"
			/>
		<path d="M402.3,547v-92.6h23.7v34.8h30.3v-34.8h23.7V547h-23.7v-37h-30.3v37H402.3z"/>
		<path d="M490.7,501.6c0-30.3,23.3-49.1,48.8-49.1c28.5,0,48.9,22.3,48.9,48.1s-20.3,48.1-49.1,48.1c-29.2,0-48.7-23.2-48.7-46.9
			V501.6z M514.3,500.5c0,14.1,9.6,27.4,25.5,27.4c16.8,0,24.9-15.3,24.9-27.2c0-12-8.1-27.4-25.2-27.4c-16.4,0-25.3,14-25.3,27
			V500.5z"/>
		<path d="M608.1,475.1h-18.3v-20.8h60.1v20.8h-18.1V547h-23.7V475.1z"/>
		<path d="M651.1,501.6c0-30.3,23.3-49.1,48.8-49.1c28.5,0,48.9,22.3,48.9,48.1s-20.3,48.1-49.1,48.1c-29.2,0-48.7-23.2-48.7-46.9
			V501.6z M674.7,500.5c0,14.1,9.6,27.4,25.5,27.4c16.8,0,24.9-15.3,24.9-27.2c0-12-8.1-27.4-25.2-27.4c-16.4,0-25.3,14-25.3,27
			V500.5z"/>
		<path d="M824.2,485.4c-1.3-2.3-2.9-4.4-4.9-6.3c-3.9-3.4-9-5.8-15.5-5.8c-11.6,0-25.3,8.6-25.3,26.9c0,19.4,13.8,27.8,25.4,27.8
			c5.9,0,10.8-1.5,14.5-4.1c3.8-2.5,6.4-6.3,7.6-10.8h-27.7v-18.9h54.9c0.5,6.6-0.2,17.5-4.3,26.5c-9,20.4-29.8,28-45.1,28
			c-28,0-49.2-21.9-49.2-48.6c0-27.7,22.3-47.7,49.6-47.7c22.2,0,41.2,14.9,46.3,32.8H824.2z"/>
		<path d="M863.8,454.3h30.3c14.5,0,23.5,2.6,28.7,6.6c7.8,6,11.3,15.1,11.3,25.3c0,7.1-2,12.6-4.6,16.8c-3.1,4.9-7.6,8-12,9.9
			l19.1,34h-24.4L888,502.3h3.9c6,0,11.1-0.5,14.3-2.5c2.9-1.9,5.3-6.3,5.3-11.4c0-4.9-2.4-8.8-5.5-10.8c-2.6-1.6-6.4-2.5-9.6-2.5
			h-8.8V547h-23.7V454.3z"/>
		<path d="M965,547h-25.7l36.7-92.6h20.4L1032,547h-25.9l-4.4-13.4h-32.4L965,547z M985.2,482.5l-10,32.3h20.4L985.2,482.5z"/>
		<path d="M1068.7,454.3c17.1,0,23.5,2.6,28.5,6.8c7.3,6,10.9,15.1,10.9,24.5c0,9.4-3.9,19.3-9.8,24.3c-6.4,5.4-12.6,8-27,8h-9.3v29
			h-23.7v-92.6H1068.7z M1062,497.1h8.6c2.3,0,6,0,9.1-1.4s5.6-4.3,5.6-9.8s-2.6-8.1-5.9-9.5s-7.1-1.4-9.8-1.4h-7.8V497.1z"/>
		<path d="M1115.7,547v-92.6h23.7v34.8h30.3v-34.8h23.7V547h-23.7v-37h-30.3v37H1115.7z"/>
		<path d="M1227.3,513.3l-27.7-58.9h25.7l13.8,37.2l13.9-37.2h25.4l-27.4,58.9V547h-23.7V513.3z"/>
	</g>
</g>
</svg>
