<?xml version="1.0" encoding="utf-8"?>
<!-- Generator: Adobe Illustrator 17.1.0, SVG Export Plug-In . SVG Version: 6.00 Build 0)  -->
<!DOCTYPE svg PUBLIC "-//W3C//DTD SVG 1.1//EN" "http://www.w3.org/Graphics/SVG/1.1/DTD/svg11.dtd">
<svg version="1.1" id="layout" xmlns="http://www.w3.org/2000/svg" xmlns:xlink="http://www.w3.org/1999/xlink" x="0px" y="0px"
	 viewBox="0 228.7 1278.4 319.9" enable-background="new 0 228.7 1278.4 319.9" xml:space="preserve">
<g>
	<path d="M324.9,230.5h34c9.5,0,17.1,2.1,22.4,6.3c5.4,4,8.3,10.1,8.3,18c0,7.1-3.3,14.4-10.8,18.6c14.9,5.3,15.3,17.6,15.3,21.5
		c0,7.4-2.9,15.5-8.5,20.1c-8.5,7.1-14.6,8-30.3,8h-30.4V230.5z M348.6,265.7h8.4c1.6,0,4.1,0,6.3-0.9c2.1-1,3.8-2.9,3.8-6.5
		c0-3.5-1.6-5.3-3.6-6.1s-4.5-0.9-6.4-0.9h-8.4V265.7z M348.6,302.3h11.1c1.5,0,4.5,0,7-1.1c2.6-1.1,4.8-3.4,4.8-7.8c0-4-2-6-4.5-7
		c-2.4-1-5.4-1-7.3-1h-11.1V302.3z"/>
	<path d="M404.8,230.5h30.3c14.5,0,23.5,2.6,28.7,6.6c7.8,6,11.3,15.1,11.3,25.3c0,7.1-2,12.6-4.6,16.8c-3.1,4.9-7.6,8-12,9.9
		l19.1,34h-24.4l-24.2-44.7h3.9c6,0,11.1-0.5,14.3-2.5c2.9-1.9,5.3-6.3,5.3-11.4c0-4.9-2.4-8.8-5.5-10.8c-2.6-1.6-6.4-2.5-9.6-2.5
		h-8.8v71.8h-23.7V230.5z"/>
	<path d="M480.5,277.8c0-30.3,23.3-49.1,48.8-49.1c28.5,0,48.9,22.3,48.9,48.1c0,25.8-20.3,48.1-49.1,48.1
		c-29.2,0-48.7-23.2-48.7-46.9V277.8z M504.2,276.7c0,14.1,9.6,27.4,25.5,27.4c16.8,0,24.9-15.3,24.9-27.2c0-12-8.1-27.4-25.2-27.4
		c-16.4,0-25.3,14-25.3,27V276.7z"/>
	<path d="M590.3,230.5H614v41.7l26.4-41.7h24.8l-30.5,46.1l33.7,46.6h-28.8l-25.5-40v40h-23.7V230.5z"/>
	<path d="M674,230.5h52.4v20.8h-28.8v14.4h27.9v20.8h-27.9v15.9h28.8v20.8H674V230.5z"/>
	<path d="M796,286.9l-0.5-56.4h22.7v92.6h-20.5l-35.4-55.8l0.5,55.8H740v-92.6h20.4L796,286.9z"/>
	<path d="M324.9,435v-92.6h23.7v34.8h30.3v-34.8h23.7V435h-23.7v-37h-30.3v37H324.9z"/>
	<path d="M417.9,342.4h52.4v20.8h-28.8v14.4h27.9v20.8h-27.9v15.9h28.8V435h-52.4V342.4z"/>
	<path d="M500.9,435h-25.7l36.7-92.6h20.4l35.5,92.6h-25.9l-4.4-13.4h-32.4L500.9,435z M521,370.5l-10,32.3h20.4L521,370.5z"/>
	<path d="M574.2,342.4h30.3c14.5,0,23.5,2.6,28.7,6.6c7.8,6,11.3,15.1,11.3,25.3c0,7.1-2,12.6-4.6,16.8c-3.1,4.9-7.6,8-12,9.9
		l19.1,34h-24.4l-24.2-44.7h3.9c6,0,11.1-0.5,14.3-2.5c2.9-1.9,5.3-6.3,5.3-11.4c0-4.9-2.4-8.8-5.5-10.8c-2.6-1.6-6.4-2.5-9.6-2.5
		h-8.8V435h-23.7V342.4z"/>
	<path d="M666.2,363.1h-18.3v-20.8H708v20.8h-18.1V435h-23.7V363.1z"/>
	<path d="M355.2,454.2c17.1,0,23.5,2.6,28.5,6.8c7.3,6,10.9,15.1,10.9,24.5c0,9.4-3.9,19.3-9.8,24.3c-6.4,5.4-12.6,8-27,8h-9.3v29
		h-23.7v-92.6H355.2z M348.6,497h8.6c2.3,0,6,0,9.1-1.4c3.1-1.4,5.6-4.3,5.6-9.8s-2.6-8.1-5.9-9.5s-7.1-1.4-9.8-1.4h-7.8V497z"/>
	<path d="M402.3,546.8v-92.6h23.7V489h30.3v-34.8h23.7v92.6h-23.7v-37h-30.3v37H402.3z"/>
	<path d="M490.7,501.5c0-30.3,23.3-49.1,48.8-49.1c28.5,0,48.9,22.3,48.9,48.1s-20.3,48.1-49.1,48.1c-29.2,0-48.7-23.2-48.7-46.9
		V501.5z M514.3,500.4c0,14.1,9.6,27.4,25.5,27.4c16.8,0,24.9-15.3,24.9-27.2c0-12-8.1-27.4-25.2-27.4c-16.4,0-25.3,14-25.3,27
		V500.4z"/>
	<path d="M608.1,475h-18.3v-20.8h60.1V475h-18.1v71.8h-23.7V475z"/>
	<path d="M651.1,501.5c0-30.3,23.3-49.1,48.8-49.1c28.5,0,48.9,22.3,48.9,48.1s-20.3,48.1-49.1,48.1c-29.2,0-48.7-23.2-48.7-46.9
		V501.5z M674.7,500.4c0,14.1,9.6,27.4,25.5,27.4c16.8,0,24.9-15.3,24.9-27.2c0-12-8.1-27.4-25.2-27.4c-16.4,0-25.3,14-25.3,27
		V500.4z"/>
	<path d="M824.2,485.3c-1.3-2.3-2.9-4.4-4.9-6.3c-3.9-3.4-9-5.8-15.5-5.8c-11.6,0-25.3,8.6-25.3,26.9c0,19.4,13.8,27.8,25.4,27.8
		c5.9,0,10.8-1.5,14.5-4.1c3.8-2.5,6.4-6.3,7.6-10.8h-27.7v-18.9h54.9c0.5,6.6-0.2,17.5-4.3,26.5c-9,20.4-29.8,28-45.1,28
		c-28,0-49.2-21.9-49.2-48.6c0-27.7,22.3-47.7,49.6-47.7c22.2,0,41.2,14.9,46.3,32.8H824.2z"/>
	<path d="M863.8,454.2h30.3c14.5,0,23.5,2.6,28.7,6.6c7.8,6,11.3,15.1,11.3,25.3c0,7.1-2,12.6-4.6,16.8c-3.1,4.9-7.6,8-12,9.9
		l19.1,34h-24.4L888,502.2h3.9c6,0,11.1-0.5,14.3-2.5c2.9-1.9,5.3-6.3,5.3-11.4c0-4.9-2.4-8.8-5.5-10.8c-2.6-1.6-6.4-2.5-9.6-2.5
		h-8.8v71.8h-23.7V454.2z"/>
	<path d="M965,546.8h-25.7l36.7-92.6h20.4l35.5,92.6h-25.9l-4.4-13.4h-32.4L965,546.8z M985.2,482.4l-10,32.3h20.4L985.2,482.4z"/>
	<path d="M1068.7,454.2c17.1,0,23.5,2.6,28.5,6.8c7.3,6,10.9,15.1,10.9,24.5c0,9.4-3.9,19.3-9.8,24.3c-6.4,5.4-12.6,8-27,8h-9.3v29
		h-23.7v-92.6H1068.7z M1062,497h8.6c2.3,0,6,0,9.1-1.4s5.6-4.3,5.6-9.8s-2.6-8.1-5.9-9.5s-7.1-1.4-9.8-1.4h-7.8V497z"/>
	<path d="M1115.7,546.8v-92.6h23.7V489h30.3v-34.8h23.7v92.6h-23.7v-37h-30.3v37H1115.7z"/>
	<path d="M1227.3,513.2l-27.7-58.9h25.7l13.8,37.2l13.9-37.2h25.4l-27.4,58.9v33.7h-23.7V513.2z"/>
</g>
<g>
	<path d="M143.5,542.3v-43.7c0-5.5-6.4-8.5-10.6-5l-53,43.7c-4.7,3.9-2,11.5,4.1,11.5h53C140.6,548.8,143.5,545.9,143.5,542.3z"/>
	<path d="M0,417.9l0,124.4c0,3.6,2.9,6.5,6.5,6.5h40.8c1.5,0,3-0.5,4.1-1.5l89.8-74.5c1.5-1.2,2.3-3.1,2.3-5v-0.3
		c0-2.7-1.7-5.1-4.2-6L8.8,411.8C4.5,410.2,0,413.4,0,417.9z"/>
	<path d="M81.3,417.5L49.4,237.9c-0.5-3.1-3.2-5.3-6.4-5.3H6.5c-3.6,0-6.5,2.9-6.5,6.5l0,153.3c0,2.7,1.7,5.1,4.2,6l68.4,26.3
		C77.3,426.5,82.2,422.5,81.3,417.5z"/>
	<path d="M60.6,240.1L79,343.5c0.9,4.9,6.7,7,10.6,3.8l51.7-43.7c1.5-1.2,2.3-3,2.3-4.9V239c0-3.6-2.9-6.5-6.5-6.5H67
		C63,232.5,59.9,236.2,60.6,240.1z"/>
</g>
<path d="M153.2,239v43.7c0,5.5,6.4,8.5,10.6,5l53-43.7c4.7-3.9,2-11.5-4.1-11.5h-53C156.1,232.5,153.2,235.4,153.2,239z"/>
<path d="M296.7,363.4V239c0-3.6-2.9-6.5-6.5-6.5h-40.8c-1.5,0-3,0.5-4.1,1.5l-89.8,74.5c-1.5,1.2-2.3,3.1-2.3,5v0.3
	c0,2.7,1.7,5.1,4.2,6l130.6,49.6C292.1,371.1,296.7,368,296.7,363.4z"/>
<path d="M215.4,363.8l31.9,179.6c0.5,3.1,3.2,5.3,6.4,5.3h36.5c3.6,0,6.5-2.9,6.5-6.5V389c0-2.7-1.7-5.1-4.2-6l-68.4-26.3
	C219.4,354.9,214.5,358.9,215.4,363.8z"/>
<path d="M236.1,541.2l-18.4-103.4c-0.9-4.9-6.7-7-10.6-3.8l-51.7,43.7c-1.5,1.2-2.3,3-2.3,4.9v59.7c0,3.6,2.9,6.5,6.5,6.5h70
	C233.7,548.8,236.8,545.2,236.1,541.2z"/>
<text transform="matrix(1 0 0 1 315.998 681.5115)"><tspan x="0" y="0" font-family="'Helvetica-Black'" font-size="114.2965">BROKEN</tspan><tspan x="0" y="104.2" font-family="'Helvetica-Black'" font-size="114.2965">HEART</tspan><tspan x="0" y="208.5" font-family="'Helvetica-Black'" font-size="114.2965">PHOTOGRAPHY</tspan></text>
</svg>
