<?xml version="1.0" encoding="utf-8"?>
<!-- Generator: Adobe Illustrator 17.1.0, SVG Export Plug-In . SVG Version: 6.00 Build 0)  -->
<!DOCTYPE svg PUBLIC "-//W3C//DTD SVG 1.1//EN" "http://www.w3.org/Graphics/SVG/1.1/DTD/svg11.dtd">
<svg version="1.1" id="layout" xmlns="http://www.w3.org/2000/svg" xmlns:xlink="http://www.w3.org/1999/xlink" x="0px" y="0px"
	 viewBox="0 0 1280 800" enable-background="new 0 0 1280 800" xml:space="preserve">
<g>
	<path d="M971.3,421.4c0-2,1.6-3.6,3.6-3.6h11.6c12.9,0,21.7,8.8,21.7,20.3v0.1c0,11.5-8.9,20.4-21.7,20.4H975c-2,0-3.6-1.6-3.6-3.6
		V421.4z M986.6,452.1c8.6,0,14.2-5.8,14.2-13.8v-0.1c0-8-5.6-13.9-14.2-13.9h-8.1v27.8H986.6z"/>
	<path d="M1024.3,454l15.2-33.9c0.8-1.8,2.3-2.9,4.3-2.9h0.4c2,0,3.4,1.1,4.3,2.9l15.2,33.9c0.3,0.5,0.4,1.1,0.4,1.5
		c0,1.9-1.5,3.4-3.4,3.4c-1.7,0-2.9-1-3.5-2.5l-3.3-7.7H1034l-3.4,7.9c-0.6,1.5-1.8,2.3-3.3,2.3c-1.9,0-3.3-1.5-3.3-3.3
		C1023.9,455.1,1024.1,454.5,1024.3,454z M1051.1,442.4l-7.2-16.5l-7.2,16.5H1051.1z"/>
	<path d="M1079.8,438.3v-0.1c0-11.6,8.7-21.2,21.1-21.2c6.3,0,10.5,1.9,14,4.6c0.8,0.6,1.4,1.6,1.4,2.9c0,2-1.6,3.5-3.6,3.5
		c-1,0-1.7-0.4-2.2-0.7c-2.8-2.3-5.8-3.7-9.8-3.7c-7.8,0-13.5,6.4-13.5,14.4v0.1c0,8,5.7,14.5,13.5,14.5c4.3,0,7.2-1.4,10.2-3.9
		c0.5-0.5,1.3-0.8,2.2-0.8c1.8,0,3.4,1.5,3.4,3.3c0,1.1-0.5,2-1.2,2.6c-3.9,3.4-8.2,5.5-14.8,5.5
		C1088.7,459.3,1079.8,450,1079.8,438.3z"/>
	<path d="M1136.7,421c0-2,1.6-3.6,3.6-3.6c2,0,3.6,1.6,3.6,3.6v13.7h19.5V421c0-2,1.6-3.6,3.6-3.6c2,0,3.6,1.6,3.6,3.6v34.4
		c0,2-1.6,3.6-3.6,3.6c-2,0-3.6-1.6-3.6-3.6v-14h-19.5v14c0,2-1.6,3.6-3.6,3.6c-2,0-3.6-1.6-3.6-3.6V421z"/>
	<path d="M1193.4,455v-33.6c0-2,1.6-3.6,3.6-3.6h23.8c1.8,0,3.2,1.5,3.2,3.2c0,1.8-1.5,3.2-3.2,3.2h-20.2v10.6h17.6
		c1.8,0,3.2,1.5,3.2,3.3c0,1.8-1.5,3.2-3.2,3.2h-17.6v11h20.5c1.8,0,3.2,1.5,3.2,3.2c0,1.8-1.5,3.2-3.2,3.2H1197
		C1194.9,458.6,1193.4,457.1,1193.4,455z"/>
	<path d="M1256.6,456.3l-14.3-33.6c-0.2-0.5-0.4-1.1-0.4-1.7c0-1.9,1.6-3.5,3.6-3.5c1.9,0,3.1,1.1,3.7,2.6l11.8,29.5l12-29.7
		c0.5-1.2,1.8-2.3,3.4-2.3c2,0,3.6,1.5,3.6,3.4c0,0.5-0.2,1.1-0.4,1.5l-14.4,33.9c-0.8,1.8-2.1,2.9-4.1,2.9h-0.4
		C1258.7,459.2,1257.4,458.1,1256.6,456.3z"/>
</g>
<g>
	<g>
		<path d="M973.6,343.5c0-2,1.6-3.6,3.6-3.6c2,0,3.6,1.6,3.6,3.6v31.1h18.5c1.8,0,3.3,1.5,3.3,3.3c0,1.8-1.5,3.3-3.3,3.3h-22.1
			c-2,0-3.6-1.6-3.6-3.6V343.5z"/>
		<path d="M1022.8,365.2l-14.1-19.3c-0.5-0.7-0.8-1.5-0.8-2.5c0-1.9,1.6-3.4,3.6-3.4c1.6,0,2.6,0.9,3.5,2.2l11.4,16.4L1038,342
			c0.9-1.3,1.9-2.2,3.4-2.2c2.1,0,3.5,1.6,3.5,3.5c0,1-0.5,1.9-1,2.6l-14,19.1v12.8c0,2-1.6,3.6-3.6,3.6c-2,0-3.6-1.6-3.6-3.6
			L1022.8,365.2L1022.8,365.2z"/>
		<path d="M1059.2,363.8v-20.3c0-2,1.6-3.6,3.6-3.6c2,0,3.6,1.6,3.6,3.6v20c0,7.6,3.9,11.6,10.3,11.6c6.4,0,10.3-3.8,10.3-11.3
			v-20.3c0-2,1.6-3.6,3.6-3.6c2,0,3.6,1.6,3.6,3.6v19.9c0,12.2-6.9,18.3-17.6,18.3C1066,381.7,1059.2,375.6,1059.2,363.8z"/>
		<path d="M1112.4,343.8c0-2,1.6-3.6,3.6-3.6h11.6c12.9,0,21.7,8.8,21.7,20.3v0.1c0,11.5-8.9,20.4-21.7,20.4H1116
			c-2,0-3.6-1.6-3.6-3.6V343.8z M1127.6,374.6c8.6,0,14.2-5.8,14.2-13.8v-0.1c0-8-5.6-13.9-14.2-13.9h-8.1v27.8H1127.6z"/>
		<path d="M1165.8,343.6c0-2,1.6-3.6,3.6-3.6h0.8c1.6,0,2.6,0.8,3.3,1.9l12.4,19.4l12.4-19.5c0.8-1.2,1.8-1.9,3.3-1.9h0.8
			c2,0,3.6,1.6,3.6,3.6v34.2c0,2-1.6,3.6-3.6,3.6c-1.9,0-3.6-1.6-3.6-3.6v-24.5l-10,15c-0.8,1.2-1.7,1.9-3,1.9c-1.3,0-2.2-0.7-3-1.9
			l-9.9-14.9v24.5c0,2-1.6,3.5-3.6,3.5c-2,0-3.5-1.5-3.5-3.5V343.6L1165.8,343.6z"/>
		<path d="M1225,343.5c0-2,1.6-3.6,3.6-3.6c2,0,3.6,1.6,3.6,3.6v34.4c0,2-1.6,3.6-3.6,3.6c-2,0-3.6-1.6-3.6-3.6V343.5z"/>
		<path d="M1251,343.5c0-2,1.6-3.6,3.6-3.6c2,0,3.6,1.6,3.6,3.6v31.1h18.5c1.8,0,3.3,1.5,3.3,3.3c0,1.8-1.5,3.3-3.3,3.3h-22.1
			c-2,0-3.6-1.6-3.6-3.6V343.5z"/>
	</g>
</g>
<path fill="#FF1D25" d="M4.3,446.9c-2.3-2-4.3-5.5-4.3-9.2c0-6.7,5.7-12.3,12.3-12.3c3.7,0,6.2,1.5,8.2,3.2
	c6.7,5.7,13.7,8.7,22.8,8.7c9.7,0,16.5-5.5,16.5-14.1v-0.3c0-9.5-8.5-14.8-22.8-14.8h-4c-6,0-11-5-11-11c0-3.5,1.5-6.5,5.5-10.5
	l22.6-22.8H14.3c-6,0-11-5-11-11c0-6,5-11,11-11h56.8c7.5,0,13,4.3,13,11.3c0,6.3-3,9.8-7.7,14.3l-22.8,21.8
	c15.8,2.7,31.3,11,31.3,32.6v0.3c0,22-16,38.1-41.9,38.1C26.3,460.2,13.8,455,4.3,446.9z"/>
<path fill="#CCCCCC" d="M237.5,411.1h-19.6c-6.3,0-11.5-5.2-11.5-11.5c0-6.3,5.2-11.5,11.5-11.5h19.6V369c0-6.5,5.3-11.8,11.8-11.8
	c6.5,0,11.8,5.3,11.8,11.8v19.1h19.6c6.3,0,11.5,5.2,11.5,11.5c0,6.3-5.2,11.5-11.5,11.5h-19.6v19.1c0,6.5-5.3,11.8-11.8,11.8
	c-6.5,0-11.8-5.3-11.8-11.8V411.1z"/>
<path fill="#FF1D25" d="M436,366l-9,2.3c-1.3,0.3-3.2,0.7-4.5,0.7c-6,0-11.2-5-11.2-11c0-5.2,3.3-9.5,8.5-11l16.5-4.8
	c4.8-1.3,8.5-2.2,12-2.2h0.3c7,0,12.6,5.7,12.6,12.6v93.9c0,7-5.7,12.6-12.6,12.6c-7,0-12.7-5.7-12.7-12.6L436,366L436,366z"/>
<path fill="#CCCCCC" d="M581.4,377.9c0-6.3,5.2-11.5,11.5-11.5h61.2c6.3,0,11.5,5.2,11.5,11.5c0,6.3-5.2,11.5-11.5,11.5h-61.2
	C586.6,389.4,581.4,384.3,581.4,377.9z M581.4,421.2c0-6.3,5.2-11.5,11.5-11.5h61.2c6.3,0,11.5,5.2,11.5,11.5s-5.2,11.5-11.5,11.5
	h-61.2C586.6,432.7,581.4,427.5,581.4,421.2z"/>
<path fill="#FF1D25" d="M845.5,433h-47.9c-6.8,0-12.5-5-12.5-11.8c0-5.3,2.2-9.5,6-14l50.6-58.8c4.8-5.7,8.5-8.7,16-8.7
	c6.8,0,12.3,5.3,12.3,12.1v60.3h6.2c5.8,0,10.5,4.7,10.5,10.5s-4.7,10.3-10.5,10.3h-6.2v14c0,6.8-5.5,12.2-12.3,12.2
	s-12.2-5.3-12.2-12.2V433z M845.5,412.2V376l-31,36.3L845.5,412.2L845.5,412.2z"/>
</svg>
